<svg width="1280" height="720" xmlns="http://www.w3.org/2000/svg" xmlns:xlink="http://www.w3.org/1999/xlink" overflow="hidden"><defs><clipPath id="clip0"><rect x="0" y="0" width="1280" height="720"/></clipPath></defs><g clip-path="url(#clip0)"><rect x="0" y="0" width="1280" height="720" fill="#FFFFFF" fill-opacity="0"/><rect x="324.5" y="135.5" width="632" height="61" stroke="#000000" stroke-linejoin="round" stroke-miterlimit="10" fill="none"/><text font-family="Calibri,Calibri_MSFontService,sans-serif" font-weight="400" font-size="24" transform="translate(331.703 175)">Noise</text><text font-family="Calibri,Calibri_MSFontService,sans-serif" font-weight="400" font-size="24" transform="translate(386.703 175)"></text><text font-family="Calibri,Calibri_MSFontService,sans-serif" font-weight="400" font-size="24" transform="translate(392.203 175)">suppression</text><text font-family="Calibri,Calibri_MSFontService,sans-serif" font-weight="400" font-size="24" transform="translate(509.37 175)"></text><text font-family="Calibri,Calibri_MSFontService,sans-serif" font-weight="400" font-size="24" transform="translate(514.87 175)">factor</text><text font-family="Calibri,Calibri_MSFontService,sans-serif" font-weight="400" font-size="24" transform="translate(572.87 175)"></text><text font-family="Calibri,Calibri_MSFontService,sans-serif" font-weight="400" font-size="24" transform="translate(578.37 175)">(dB)</text><text font-family="Cambria Math,Cambria Math_MSFontService,sans-serif" font-weight="400" font-size="24" transform="translate(618.703 175)">:</text><text font-family="Cambria Math,Cambria Math_MSFontService,sans-serif" font-weight="400" font-size="24" transform="translate(627.037 175)"></text><text font-family="Cambria Math,Cambria Math_MSFontService,sans-serif" font-weight="400" font-size="24" transform="translate(634.37 175)">ğ’©</text><text font-family="Cambria Math,Cambria Math_MSFontService,sans-serif" font-weight="400" font-size="18" transform="translate(652.803 180)">ğ‘›</text><text font-family="Cambria Math,Cambria Math_MSFontService,sans-serif" font-weight="400" font-size="24" transform="translate(672.097 175)">=</text><text font-family="Cambria Math,Cambria Math_MSFontService,sans-serif" font-weight="400" font-size="24" transform="translate(696.763 175)">20</text><text font-family="Cambria Math,Cambria Math_MSFontService,sans-serif" font-weight="400" font-size="24" transform="translate(728.763 175)">Ã—</text><text font-family="Cambria Math,Cambria Math_MSFontService,sans-serif" font-weight="400" font-size="24" transform="translate(751.263 175)">ln</text><text font-family="Cambria Math,Cambria Math_MSFontService,sans-serif" font-weight="400" font-size="24" transform="translate(775.097 157)">ğ‘›</text><path d="M810.152 139.293C812.433 139.895 814.185 141.194 815.408 143.19 816.63 145.186 817.242 147.594 817.242 150.414 817.242 153.243 816.632 155.651 815.414 157.639 814.195 159.627 812.441 160.922 810.152 161.524L809.871 160.621C811.675 160.02 813.017 158.832 813.896 157.059 814.775 155.285 815.214 153.032 815.214 150.297 815.214 147.657 814.777 145.463 813.902 143.717 813.027 141.971 811.671 140.797 809.835 140.196ZM798.543 139.293 798.859 140.196C797.031 140.797 795.677 141.971 794.799 143.717 793.92 145.463 793.48 147.657 793.48 150.297 793.48 153.032 793.92 155.285 794.799 157.059 795.677 158.832 797.019 160.02 798.824 160.621L798.543 161.524C796.254 160.922 794.5 159.627 793.281 157.639 792.062 155.651 791.453 153.243 791.453 150.414 791.453 147.594 792.064 145.186 793.287 143.19 794.51 141.194 796.261 139.895 798.543 139.293Z" fill-rule="evenodd"/><text font-family="Cambria Math,Cambria Math_MSFontService,sans-serif" font-weight="400" font-size="24" transform="translate(799.303 157)">ğ‘¡</text><text font-family="Cambria Math,Cambria Math_MSFontService,sans-serif" font-weight="400" font-size="24" transform="translate(824.683 157)">âˆ’</text><text font-family="Cambria Math,Cambria Math_MSFontService,sans-serif" font-weight="400" font-size="24" transform="translate(848.017 157)">ğ‘›</text><path d="M933.599 139.293C935.88 139.895 937.632 141.194 938.854 143.19 940.077 145.186 940.688 147.594 940.688 150.414 940.688 153.243 940.079 155.651 938.86 157.639 937.641 159.627 935.888 160.922 933.599 161.524L933.317 160.621C935.122 160.02 936.464 158.832 937.343 157.059 938.222 155.285 938.661 153.032 938.661 150.297 938.661 147.657 938.224 145.463 937.349 143.717 936.474 141.971 935.118 140.797 933.282 140.196ZM871.463 139.293 871.779 140.196C869.951 140.797 868.597 141.971 867.719 143.717 866.84 145.463 866.4 147.657 866.4 150.297 866.4 153.032 866.84 155.285 867.719 157.059 868.597 158.832 869.939 160.02 871.744 160.621L871.463 161.524C869.174 160.922 867.42 159.627 866.201 157.639 864.982 155.651 864.373 153.243 864.373 150.414 864.373 147.594 864.984 145.186 866.207 143.19 867.429 141.194 869.181 139.895 871.463 139.293Z" fill-rule="evenodd"/><text font-family="Cambria Math,Cambria Math_MSFontService,sans-serif" font-weight="400" font-size="24" transform="translate(872.223 157)">ğ‘¡</text><text font-family="Cambria Math,Cambria Math_MSFontService,sans-serif" font-weight="400" font-size="24" transform="translate(887.643 157)">âˆ’</text><text font-family="Cambria Math,Cambria Math_MSFontService,sans-serif" font-weight="400" font-size="24" transform="translate(910.977 157)">ğ‘¡</text><text font-family="Cambria Math,Cambria Math_MSFontService,sans-serif" font-weight="400" font-size="18" transform="translate(920.123 162)">ğ‘‘</text><text font-family="Cambria Math,Cambria Math_MSFontService,sans-serif" font-weight="400" font-size="24" transform="translate(836.817 191)">ğ‘›</text><path d="M871.872 173.513C874.153 174.115 875.905 175.414 877.128 177.41 878.35 179.406 878.962 181.814 878.962 184.634 878.962 187.463 878.352 189.871 877.134 191.859 875.915 193.847 874.161 195.142 871.872 195.744L871.591 194.841C873.395 194.24 874.737 193.052 875.616 191.279 876.495 189.505 876.934 187.252 876.934 184.517 876.934 181.877 876.497 179.683 875.622 177.937 874.747 176.191 873.391 175.017 871.555 174.416ZM860.263 173.513 860.579 174.416C858.751 175.017 857.397 176.191 856.519 177.937 855.64 179.683 855.2 181.877 855.2 184.517 855.2 187.252 855.64 189.505 856.519 191.279 857.397 193.052 858.739 194.24 860.544 194.841L860.263 195.744C857.974 195.142 856.22 193.847 855.001 191.859 853.782 189.871 853.173 187.463 853.173 184.634 853.173 181.814 853.784 179.406 855.007 177.41 856.229 175.414 857.981 174.115 860.263 173.513Z" fill-rule="evenodd"/><text font-family="Cambria Math,Cambria Math_MSFontService,sans-serif" font-weight="400" font-size="24" transform="translate(861.023 191)">ğ‘¡</text><path d="M774.67 167.427 858.67 167.427 942.67 167.427 942.67 169.427 858.67 169.427 774.67 169.427Z" fill-rule="evenodd"/><rect x="341.5" y="216.5" width="598" height="60" stroke="#000000" stroke-linejoin="round" stroke-miterlimit="10" fill="none"/><text font-family="Calibri,Calibri_MSFontService,sans-serif" font-style="italic" font-weight="400" font-size="24" transform="translate(343.603 254)">S</text><text font-family="Calibri,Calibri_MSFontService,sans-serif" font-style="italic" font-weight="400" font-size="24" transform="translate(354.437 254)">ignal</text><text font-family="Calibri,Calibri_MSFontService,sans-serif" font-style="italic" font-weight="400" font-size="24" transform="translate(402.437 254)"></text><text font-family="Calibri,Calibri_MSFontService,sans-serif" font-style="italic" font-weight="400" font-size="24" transform="translate(407.937 254)">to</text><text font-family="Calibri,Calibri_MSFontService,sans-serif" font-style="italic" font-weight="400" font-size="24" transform="translate(428.27 254)"></text><text font-family="Calibri,Calibri_MSFontService,sans-serif" font-style="italic" font-weight="400" font-size="24" transform="translate(433.77 254)">noise</text><text font-family="Calibri,Calibri_MSFontService,sans-serif" font-style="italic" font-weight="400" font-size="24" transform="translate(484.77 254)"></text><text font-family="Calibri,Calibri_MSFontService,sans-serif" font-style="italic" font-weight="400" font-size="24" transform="translate(490.27 254)">ratio</text><text font-family="Calibri,Calibri_MSFontService,sans-serif" font-style="italic" font-weight="400" font-size="24" transform="translate(536.603 254)"></text><text font-family="Calibri,Calibri_MSFontService,sans-serif" font-weight="400" font-size="24" transform="translate(542.103 254)">(dB)</text><text font-family="Cambria Math,Cambria Math_MSFontService,sans-serif" font-weight="400" font-size="24" transform="translate(582.437 254)">:</text><text font-family="Cambria Math,Cambria Math_MSFontService,sans-serif" font-weight="400" font-size="24" transform="translate(592.77 254)"></text><text font-family="Cambria Math,Cambria Math_MSFontService,sans-serif" font-weight="400" font-size="24" transform="translate(598.103 254)">ğ’®ğ’©â„›</text><text font-family="Cambria Math,Cambria Math_MSFontService,sans-serif" font-weight="400" font-size="24" transform="translate(660.197 254)">=</text><text font-family="Cambria Math,Cambria Math_MSFontService,sans-serif" font-weight="400" font-size="24" transform="translate(684.863 254)">20</text><text font-family="Cambria Math,Cambria Math_MSFontService,sans-serif" font-weight="400" font-size="24" transform="translate(716.863 254)">Ã—</text><text font-family="Cambria Math,Cambria Math_MSFontService,sans-serif" font-weight="400" font-size="24" transform="translate(739.363 254)">ln</text><text font-family="Cambria Math,Cambria Math_MSFontService,sans-serif" font-weight="400" font-size="24" transform="translate(840.477 236)">ğ‘†</text><text font-family="Cambria Math,Cambria Math_MSFontService,sans-serif" font-weight="400" font-size="24" transform="translate(763.197 270)">ğ‘›</text><path d="M798.252 252.133C800.533 252.735 802.285 254.034 803.508 256.03 804.73 258.026 805.342 260.434 805.342 263.254 805.342 266.083 804.732 268.491 803.513 270.479 802.295 272.467 800.541 273.762 798.252 274.364L797.97 273.461C799.775 272.86 801.117 271.672 801.996 269.899 802.875 268.126 803.314 265.872 803.314 263.137 803.314 260.497 802.877 258.303 802.002 256.557 801.127 254.811 799.771 253.637 797.935 253.036ZM786.643 252.133 786.959 253.036C785.131 253.637 783.777 254.811 782.898 256.557 782.02 258.303 781.58 260.497 781.58 263.137 781.58 265.872 782.02 268.126 782.898 269.899 783.777 271.672 785.119 272.86 786.924 273.461L786.643 274.364C784.354 273.762 782.6 272.467 781.381 270.479 780.162 268.491 779.553 266.083 779.553 263.254 779.553 260.434 780.164 258.026 781.387 256.03 782.609 254.034 784.361 252.735 786.643 252.133Z" fill-rule="evenodd"/><text font-family="Cambria Math,Cambria Math_MSFontService,sans-serif" font-weight="400" font-size="24" transform="translate(787.403 270)">ğ‘¡</text><text font-family="Cambria Math,Cambria Math_MSFontService,sans-serif" font-weight="400" font-size="24" transform="translate(812.783 270)">âˆ’</text><text font-family="Cambria Math,Cambria Math_MSFontService,sans-serif" font-weight="400" font-size="24" transform="translate(836.117 270)">ğ‘›</text><path d="M921.698 252.133C923.98 252.735 925.732 254.034 926.954 256.03 928.177 258.026 928.788 260.434 928.788 263.254 928.788 266.083 928.179 268.491 926.96 270.479 925.741 272.467 923.987 273.762 921.698 274.364L921.417 273.461C923.222 272.86 924.564 271.672 925.443 269.899 926.321 268.126 926.761 265.872 926.761 263.137 926.761 260.497 926.323 258.303 925.448 256.557 924.573 254.811 923.218 253.637 921.382 253.036ZM859.563 252.133 859.879 253.036C858.051 253.637 856.697 254.811 855.818 256.557 854.94 258.303 854.5 260.497 854.5 263.137 854.5 265.872 854.94 268.126 855.818 269.899 856.697 271.672 858.039 272.86 859.844 273.461L859.563 274.364C857.273 273.762 855.52 272.467 854.301 270.479 853.082 268.491 852.473 266.083 852.473 263.254 852.473 260.434 853.084 258.026 854.307 256.03 855.529 254.034 857.281 252.735 859.563 252.133Z" fill-rule="evenodd"/><text font-family="Cambria Math,Cambria Math_MSFontService,sans-serif" font-weight="400" font-size="24" transform="translate(860.323 270)">ğ‘¡</text><text font-family="Cambria Math,Cambria Math_MSFontService,sans-serif" font-weight="400" font-size="24" transform="translate(875.743 270)">âˆ’</text><text font-family="Cambria Math,Cambria Math_MSFontService,sans-serif" font-weight="400" font-size="24" transform="translate(899.077 270)">ğ‘¡</text><text font-family="Cambria Math,Cambria Math_MSFontService,sans-serif" font-weight="400" font-size="18" transform="translate(908.223 275)">ğ‘‘</text><path d="M763.003 246.047 847.003 246.047 931.003 246.047 931.003 248.047 847.003 248.047 763.003 248.047Z" fill-rule="evenodd"/><path d="M302.444 335 367.556 335C376.085 335 383 342.163 383 351 383 359.837 376.085 367 367.556 367L302.444 367C293.915 367 287 359.837 287 351 287 342.163 293.915 335 302.444 335Z" stroke="#000000" stroke-width="2" stroke-miterlimit="8" fill="none" fill-rule="evenodd"/><text font-family="Calibri,Calibri_MSFontService,sans-serif" font-weight="400" font-size="19" transform="translate(309.048 357)">Source</text><path d="M383.5 350.833 441.556 350.833 441.556 352.167 383.5 352.167ZM440.223 347.5 448.223 351.5 440.223 355.5Z"/><text font-family="Calibri,Calibri_MSFontService,sans-serif" font-weight="400" font-size="13" transform="translate(412.106 345)">S</text><rect x="545" y="335" width="96" height="32" stroke="#000000" stroke-width="2" stroke-miterlimit="8" fill="none"/><text font-family="Calibri,Calibri_MSFontService,sans-serif" font-weight="400" font-size="19" transform="translate(569.845 357)">Driver</text><path d="M0.00161966-0.666665 59.1922-0.522861 59.189 0.810468-0.00161966 0.666665ZM57.867-3.85942 65.8572 0.16 57.8475 4.14055Z" transform="matrix(1 0 0 -1 479.5 351.66)"/><text font-family="Calibri,Calibri_MSFontService,sans-serif" font-weight="400" font-size="13" transform="translate(483.181 345)">S</text><text font-family="Calibri,Calibri_MSFontService,sans-serif" font-weight="400" font-size="13" transform="translate(489.348 345)">-</text><text font-family="Calibri,Calibri_MSFontService,sans-serif" font-weight="400" font-size="13" transform="translate(493.348 345)">n(t</text><text font-family="Calibri,Calibri_MSFontService,sans-serif" font-weight="400" font-size="13" transform="translate(508.848 345)">-</text><text font-family="Cambria Math,Cambria Math_MSFontService,sans-serif" font-weight="400" font-size="13" transform="translate(515.848 345)">ğ‘¡</text><text font-family="Cambria Math,Cambria Math_MSFontService,sans-serif" font-weight="400" font-size="9" transform="translate(520.988 348)">4</text><text font-family="Calibri,Calibri_MSFontService,sans-serif" font-weight="400" font-size="13" transform="translate(527.208 345)">)</text><path d="M856.022 487.5 856.022 544.486 709.167 544.486 709.167 543.153 855.356 543.153 854.689 543.82 854.689 487.5ZM710.5 547.82 702.5 543.82 710.5 539.82Z"/><text font-family="Calibri,Calibri_MSFontService,sans-serif" font-weight="400" font-size="13" transform="translate(753.697 537)">S+n(t</text><text font-family="Calibri,Calibri_MSFontService,sans-serif" font-weight="400" font-size="13" transform="translate(782.031 537)">-</text><text font-family="Cambria Math,Cambria Math_MSFontService,sans-serif" font-weight="400" font-size="13" transform="translate(789.031 537)">ğ‘¡</text><text font-family="Cambria Math,Cambria Math_MSFontService,sans-serif" font-weight="400" font-size="9" transform="translate(793.864 540)">1</text><text font-family="Calibri,Calibri_MSFontService,sans-serif" font-weight="400" font-size="13" transform="translate(800.084 537)">)</text><text font-family="Calibri,Calibri_MSFontService,sans-serif" font-weight="400" font-size="13" transform="translate(461.863 364)">-</text><text font-family="Calibri,Calibri_MSFontService,sans-serif" font-weight="400" font-size="13" transform="translate(449.655 355)">+</text><path d="M452.54 339.686 474.46 362.314M474.46 339.686 452.54 362.314" stroke="#000000" stroke-width="2" stroke-miterlimit="8" fill="none" fill-rule="evenodd"/><path d="M448 351C448 342.163 454.94 335 463.5 335 472.06 335 479 342.163 479 351 479 359.837 472.06 367 463.5 367 454.94 367 448 359.837 448 351Z" stroke="#000000" stroke-width="2" stroke-miterlimit="8" fill="none" fill-rule="evenodd"/><path d="M0.666667-4.36573e-07 0.666767 153.653-0.666566 153.653-0.666667 4.36573e-07ZM4.0001 152.32 0.000104987 160.32-3.9999 152.32Z" transform="matrix(1 0 0 -1 463.5 527.82)"/><text font-family="Calibri,Calibri_MSFontService,sans-serif" font-weight="400" font-size="13" transform="translate(466.846 449)">n(t</text><text font-family="Calibri,Calibri_MSFontService,sans-serif" font-weight="400" font-size="13" transform="translate(482.346 449)">-</text><text font-family="Cambria Math,Cambria Math_MSFontService,sans-serif" font-weight="400" font-size="13" transform="translate(489.346 449)">ğ‘¡</text><text font-family="Cambria Math,Cambria Math_MSFontService,sans-serif" font-weight="400" font-size="9" transform="translate(494.486 452)">3</text><text font-family="Calibri,Calibri_MSFontService,sans-serif" font-weight="400" font-size="13" transform="translate(500.706 449)">)</text><path d="M641.501 350.833 700.691 350.884 700.69 352.217 641.5 352.167ZM699.361 347.55 707.357 351.556 699.354 355.55Z"/><text font-family="Calibri,Calibri_MSFontService,sans-serif" font-weight="400" font-size="13" transform="translate(646.013 345)">S</text><text font-family="Calibri,Calibri_MSFontService,sans-serif" font-weight="400" font-size="13" transform="translate(652.18 345)">-</text><text font-family="Calibri,Calibri_MSFontService,sans-serif" font-weight="400" font-size="13" transform="translate(656.18 345)">n(t</text><text font-family="Calibri,Calibri_MSFontService,sans-serif" font-weight="400" font-size="13" transform="translate(671.68 345)">-</text><text font-family="Cambria Math,Cambria Math_MSFontService,sans-serif" font-weight="400" font-size="13" transform="translate(678.68 345)">ğ‘¡</text><text font-family="Cambria Math,Cambria Math_MSFontService,sans-serif" font-weight="400" font-size="9" transform="translate(683.82 348)">5</text><text font-family="Calibri,Calibri_MSFontService,sans-serif" font-weight="400" font-size="13" transform="translate(690.04 345)">)</text><rect x="707" y="335" width="16" height="32" stroke="#000000" stroke-width="2" stroke-miterlimit="8" fill="none"/><path d="M755 374 723 366 723 335 755 327Z" stroke="#000000" stroke-width="2" stroke-miterlimit="8" fill="none" fill-rule="evenodd"/><path d="M764.252 347.811C766.127 349.685 766.127 352.724 764.252 354.599" stroke="#000000" stroke-width="1.33333" stroke-miterlimit="8" fill="none" fill-rule="evenodd"/><path d="M771.481 340.701C777.105 346.325 777.105 355.442 771.481 361.066" stroke="#000000" stroke-width="1.33333" stroke-miterlimit="8" fill="none" fill-rule="evenodd"/><path d="M781.223 330.519C792.47 341.766 792.47 360.001 781.223 371.248" stroke="#000000" stroke-width="1.33333" stroke-miterlimit="8" fill="none" fill-rule="evenodd"/><path d="M791.405 320.176C808.276 337.047 808.276 364.4 791.405 381.27" stroke="#000000" stroke-width="1.33333" stroke-miterlimit="8" fill="none" fill-rule="evenodd"/><text font-family="Calibri,Calibri_MSFontService,sans-serif" font-weight="400" font-size="13" transform="translate(755.7 313)">S</text><text font-family="Calibri,Calibri_MSFontService,sans-serif" font-weight="400" font-size="13" transform="translate(761.866 313)">-</text><text font-family="Calibri,Calibri_MSFontService,sans-serif" font-weight="400" font-size="13" transform="translate(765.866 313)">n(t</text><text font-family="Calibri,Calibri_MSFontService,sans-serif" font-weight="400" font-size="13" transform="translate(781.366 313)">-</text><text font-family="Cambria Math,Cambria Math_MSFontService,sans-serif" font-weight="400" font-size="13" transform="translate(788.366 313)">ğ‘¡</text><text font-family="Cambria Math,Cambria Math_MSFontService,sans-serif" font-weight="400" font-size="9" transform="translate(793.506 316)">ğ‘‘</text><text font-family="Calibri,Calibri_MSFontService,sans-serif" font-weight="400" font-size="13" transform="translate(800.533 313)">)</text><rect x="833" y="471" width="45" height="16" stroke="#000000" stroke-width="2" stroke-miterlimit="8" fill="none"/><path d="M0 32 8 0 37 0 45 32Z" stroke="#000000" stroke-width="2" stroke-miterlimit="8" fill="none" fill-rule="evenodd" transform="matrix(-1 0 0 1 878 439)"/><path d="M858.231 396.012C856.357 397.886 853.318 397.886 851.443 396.012" stroke="#000000" stroke-width="1.33333" stroke-miterlimit="8" fill="none" fill-rule="evenodd"/><path d="M865.341 403.24C859.717 408.864 850.599 408.864 844.976 403.24" stroke="#000000" stroke-width="1.33333" stroke-miterlimit="8" fill="none" fill-rule="evenodd"/><path d="M875.523 412.982C864.276 424.229 846.041 424.229 834.794 412.982" stroke="#000000" stroke-width="1.33333" stroke-miterlimit="8" fill="none" fill-rule="evenodd"/><path d="M885.865 423.164C868.995 440.035 841.642 440.035 824.771 423.164" stroke="#000000" stroke-width="1.33333" stroke-miterlimit="8" fill="none" fill-rule="evenodd"/><text font-family="Calibri,Calibri_MSFontService,sans-serif" font-weight="400" font-size="13" transform="translate(892.575 416)">S+n(t)</text><path d="M806 324.333C806 316.97 811.97 311 819.333 311L891.667 311C899.031 311 905 316.97 905 324.333L905 377.667C905 385.031 899.03 391 891.667 391L819.333 391C811.97 391 806 385.03 806 377.667Z" stroke="#000000" stroke-width="2" stroke-miterlimit="8" fill="none" fill-rule="evenodd"/><text font-family="Calibri,Calibri_MSFontService,sans-serif" font-weight="400" font-size="19" transform="translate(823.235 357)">Medium</text><text font-family="Calibri,Calibri_MSFontService,sans-serif" font-weight="400" font-size="13" transform="translate(820.853 333)">S</text><text font-family="Calibri,Calibri_MSFontService,sans-serif" font-weight="400" font-size="13" transform="translate(827.02 333)">-</text><text font-family="Calibri,Calibri_MSFontService,sans-serif" font-weight="400" font-size="13" transform="translate(831.02 333)">n(t</text><text font-family="Calibri,Calibri_MSFontService,sans-serif" font-weight="400" font-size="13" transform="translate(846.52 333)">-</text><text font-family="Calibri,Calibri_MSFontService,sans-serif" font-weight="400" font-size="13" transform="translate(850.52 333)">td)+n(t)</text><path d="M4.8 0C7.45097-1.22221e-15 9.6 2.14903 9.6 4.8" stroke="#000000" stroke-width="1.33333" stroke-miterlimit="8" fill="none" fill-rule="evenodd" transform="matrix(-0.707107 0.707107 0.707107 0.707107 949.972 344.417)"/><path d="M14.4 0C22.3529-3.66662e-15 28.8 6.4471 28.8 14.4" stroke="#000000" stroke-width="1.33333" stroke-miterlimit="8" fill="none" fill-rule="evenodd" transform="matrix(-0.707107 0.707107 0.707107 0.707107 949.531 330.519)"/><path d="M28.8 0C44.7058-7.33325e-15 57.6 12.8942 57.6 28.8" stroke="#000000" stroke-width="1.33333" stroke-miterlimit="8" fill="none" fill-rule="evenodd" transform="matrix(-0.707107 0.707107 0.707107 0.707107 949.972 310.154)"/><path d="M43.2 0C67.0587-1.09999e-14 86.4 19.3413 86.4 43.2" stroke="#000000" stroke-width="1.33333" stroke-miterlimit="8" fill="none" fill-rule="evenodd" transform="matrix(-0.707107 0.707107 0.707107 0.707107 949.972 289.629)"/><text font-family="Calibri,Calibri_MSFontService,sans-serif" font-weight="400" font-size="13" transform="translate(951.045 354)">n(t)</text><text font-family="Calibri,Calibri_MSFontService,sans-serif" font-weight="400" font-size="13" transform="translate(469.463 547)">+</text><text font-family="Calibri,Calibri_MSFontService,sans-serif" font-weight="400" font-size="13" transform="translate(451.486 547)">-</text><path d="M4.53985 4.6863 26.4601 27.3137M26.4601 4.6863 4.53985 27.3137" stroke="#000000" stroke-width="2" stroke-miterlimit="8" fill="none" fill-rule="evenodd" transform="matrix(-1 0 0 1 479 527)"/><path d="M0 16C-1.97336e-15 7.16344 6.93959-2.03701e-15 15.5-4.07403e-15 24.0604-8.14805e-15 31 7.16344 31 16 31 24.8366 24.0604 32 15.5 32 6.93959 32-9.86678e-15 24.8366 0 16Z" stroke="#000000" stroke-width="2" stroke-miterlimit="8" fill="none" fill-rule="evenodd" transform="matrix(-1 0 0 1 479 527)"/><path d="M0-0.666667 176.826-0.666667 176.826 106.056 175.493 106.056 175.493 0 176.16 0.666667 0 0.666667ZM180.16 104.723 176.16 112.723 172.16 104.723Z" transform="matrix(1.83697e-16 1 1 -1.83697e-16 335.5 367.5)"/><text font-family="Calibri,Calibri_MSFontService,sans-serif" font-weight="400" font-size="13" transform="translate(388.382 536)">S</text><text fill="#4472C4" font-family="Calibri,Calibri_MSFontService,sans-serif" font-weight="400" font-size="13" transform="translate(451.063 328)">MX1</text><text fill="#4472C4" font-family="Calibri,Calibri_MSFontService,sans-serif" font-weight="400" font-size="13" transform="translate(450.927 571)">MX2</text><text fill="#4472C4" font-family="Calibri,Calibri_MSFontService,sans-serif" font-weight="400" font-size="13" transform="translate(581.192 327)">U2</text><text fill="#4472C4" font-family="Calibri,Calibri_MSFontService,sans-serif" font-weight="400" font-size="13" transform="translate(328.75 323)">U1</text><text fill="#4472C4" font-family="Calibri,Calibri_MSFontService,sans-serif" font-weight="400" font-size="13" transform="translate(712.621 327)">TD1</text><text fill="#4472C4" font-family="Calibri,Calibri_MSFontService,sans-serif" font-weight="400" font-size="13" transform="translate(880.005 468)">TD2</text><rect x="606" y="527" width="96" height="32" stroke="#000000" stroke-width="2" stroke-miterlimit="8" fill="none"/><text font-family="Calibri,Calibri_MSFontService,sans-serif" font-weight="400" font-size="19" transform="translate(619.463 549)">Amplifier</text><path d="M1.10021e-06-0.666667 120.565-0.666468 120.565 0.666866-1.10021e-06 0.666667ZM119.232-3.9998 127.232 0.000209974 119.232 4.0002Z" transform="matrix(-1 0 0 1 606.732 543.5)"/><text font-family="Calibri,Calibri_MSFontService,sans-serif" font-weight="400" font-size="13" transform="translate(516.981 537)">S+n(t</text><text font-family="Calibri,Calibri_MSFontService,sans-serif" font-weight="400" font-size="13" transform="translate(545.314 537)">-</text><text font-family="Cambria Math,Cambria Math_MSFontService,sans-serif" font-weight="400" font-size="13" transform="translate(552.314 537)">ğ‘¡</text><text font-family="Cambria Math,Cambria Math_MSFontService,sans-serif" font-weight="400" font-size="9" transform="translate(557.454 540)">2</text><text font-family="Calibri,Calibri_MSFontService,sans-serif" font-weight="400" font-size="13" transform="translate(563.674 537)">)</text><text fill="#4472C4" font-family="Calibri,Calibri_MSFontService,sans-serif" font-weight="400" font-size="13" transform="translate(646.628 576)">U4</text><rect x="600" y="431" width="96" height="32" stroke="#000000" stroke-width="2" stroke-miterlimit="8" fill="none"/><text font-family="Calibri,Calibri_MSFontService,sans-serif" font-weight="400" font-size="19" transform="translate(631.067 453)">NGC</text><path d="M0-0.666667 32.8666-0.666667 32.8666 54.8952 32.1999 54.2286 57.7331 54.2286 57.7331 55.5619 31.5332 55.5619 31.5332 0 32.1999 0.666667 0 0.666667ZM56.3998 50.8952 64.3998 54.8952 56.3998 58.8952Z" transform="matrix(1.83697e-16 1 1 -1.83697e-16 593.5 367.5)"/><text fill="#4472C4" font-family="Calibri,Calibri_MSFontService,sans-serif" font-weight="400" font-size="13" transform="translate(705.583 450)">U3</text><path d="M6.66667-0.666667 32.8666-0.666667 32.8666 6.47958 32.1999 5.81291 57.7331 5.81291 57.7331 7.14625 31.5332 7.14625 31.5332 0 32.1999 0.666667 6.66667 0.666667ZM8 4 0 0 8-4ZM56.3998 2.47958 64.3998 6.47958 56.3998 10.4796Z" transform="matrix(1.83697e-16 1 1 -1.83697e-16 648.5 463.5)"/></g></svg>