<svg width="1280" height="720" xmlns="http://www.w3.org/2000/svg" xmlns:xlink="http://www.w3.org/1999/xlink" overflow="hidden"><defs><clipPath id="clip0"><rect x="0" y="0" width="1280" height="720"/></clipPath><clipPath id="clip1"><rect x="640" y="-33" width="526" height="202"/></clipPath><clipPath id="clip2"><rect x="640" y="6" width="526" height="202"/></clipPath><clipPath id="clip3"><rect x="640" y="45" width="526" height="202"/></clipPath><clipPath id="clip4"><rect x="640" y="84" width="526" height="202"/></clipPath><clipPath id="clip5"><rect x="640" y="122" width="526" height="203"/></clipPath><clipPath id="clip6"><rect x="640" y="161" width="526" height="203"/></clipPath><clipPath id="clip7"><rect x="640" y="200" width="526" height="203"/></clipPath><clipPath id="clip8"><rect x="640" y="239" width="526" height="203"/></clipPath><clipPath id="clip9"><rect x="640" y="317" width="526" height="202"/></clipPath><clipPath id="clip10"><rect x="640" y="356" width="526" height="202"/></clipPath><clipPath id="clip11"><rect x="640" y="394" width="526" height="203"/></clipPath><clipPath id="clip12"><rect x="640" y="433" width="526" height="203"/></clipPath><clipPath id="clip13"><rect x="640" y="472" width="526" height="203"/></clipPath><clipPath id="clip14"><rect x="640" y="511" width="526" height="203"/></clipPath><clipPath id="clip15"><rect x="640" y="550" width="526" height="203"/></clipPath><clipPath id="clip16"><rect x="640" y="589" width="526" height="203"/></clipPath></defs><g clip-path="url(#clip0)"><rect x="0" y="0" width="1280" height="720" fill="#FFFFFF" fill-opacity="0"/><path d="M114.952 10.1333 640 10.1333 640 48.5333 114.952 48.5333Z" fill-rule="evenodd"/><path d="M640 10.1333 1165.05 10.1333 1165.05 48.5333 640 48.5333Z" fill-rule="evenodd"/><path d="M114.952 48.5333 640 48.5333 640 87.4667 114.952 87.4667Z" fill="#BD6225" fill-rule="evenodd"/><path d="M640 48.5333 1165.05 48.5333 1165.05 87.4667 640 87.4667Z" fill="#BD6225" fill-rule="evenodd"/><path d="M114.952 87.4667 640 87.4667 640 126.4 114.952 126.4Z" fill="#ED7D31" fill-rule="evenodd"/><path d="M640 87.4667 1165.05 87.4667 1165.05 126.4 640 126.4Z" fill="#ED7D31" fill-rule="evenodd"/><path d="M114.952 126.4 640 126.4 640 165.333 114.952 165.333Z" fill="#BD6225" fill-rule="evenodd"/><path d="M640 126.4 1165.05 126.4 1165.05 165.333 640 165.333Z" fill="#BD6225" fill-rule="evenodd"/><path d="M114.952 165.333 640 165.333 640 204.267 114.952 204.267Z" fill="#ED7D31" fill-rule="evenodd"/><path d="M640 165.333 1165.05 165.333 1165.05 204.267 640 204.267Z" fill="#ED7D31" fill-rule="evenodd"/><path d="M114.952 204.267 640 204.267 640 243.2 114.952 243.2Z" fill="#BD6225" fill-rule="evenodd"/><path d="M640 204.267 1165.05 204.267 1165.05 243.2 640 243.2Z" fill="#BD6225" fill-rule="evenodd"/><path d="M114.952 243.2 640 243.2 640 282.133 114.952 282.133Z" fill="#ED7D31" fill-rule="evenodd"/><path d="M640 243.2 1165.05 243.2 1165.05 282.133 640 282.133Z" fill="#ED7D31" fill-rule="evenodd"/><path d="M114.952 282.133 640 282.133 640 321.067 114.952 321.067Z" fill="#BD6225" fill-rule="evenodd"/><path d="M640 282.133 1165.05 282.133 1165.05 321.067 640 321.067Z" fill="#BD6225" fill-rule="evenodd"/><path d="M114.952 321.067 640 321.067 640 360 114.952 360Z" fill="#ED7D31" fill-rule="evenodd"/><path d="M640 321.067 1165.05 321.067 1165.05 360 640 360Z" fill="#ED7D31" fill-rule="evenodd"/><path d="M114.952 48.5333 1165.05 48.5333" stroke="#FFFFFF" stroke-width="2.66667" stroke-linejoin="round" stroke-miterlimit="10" fill="none" fill-rule="evenodd"/><text fill="#FFFFFF" font-family="Calibri,Calibri_MSFontService,sans-serif" font-weight="700" font-size="24" transform="translate(359.553 37)">Key</text><text fill="#FFFFFF" font-family="Calibri,Calibri_MSFontService,sans-serif" font-weight="700" font-size="24" transform="translate(845.737 37)">Description</text><text fill="#FFFFFF" font-family="Cambria Math,Cambria Math_MSFontService,sans-serif" font-weight="400" font-size="24" transform="translate(368.159 77)">洧녡</text><g clip-path="url(#clip1)"><text fill="#FFFFFF" font-family="Calibri,Calibri_MSFontService,sans-serif" font-weight="400" font-size="24" transform="translate(649.6 76)">Original signal</text></g><text fill="#FFFFFF" font-family="Cambria Math,Cambria Math_MSFontService,sans-serif" font-weight="400" font-size="24" transform="translate(352.599 116)">洧녵</text><path d="M387.654 97.5664C389.936 98.168 391.688 99.4668 392.91 101.463 394.133 103.459 394.744 105.867 394.744 108.688 394.744 111.516 394.135 113.924 392.916 115.912 391.697 117.9 389.944 119.195 387.654 119.797L387.373 118.895C389.178 118.293 390.52 117.105 391.399 115.332 392.278 113.559 392.717 111.305 392.717 108.57 392.717 105.93 392.279 103.736 391.404 101.99 390.529 100.244 389.174 99.0703 387.338 98.4688ZM376.045 97.5664 376.362 98.4688C374.534 99.0703 373.18 100.244 372.301 101.99 371.422 103.736 370.983 105.93 370.983 108.57 370.983 111.305 371.422 113.559 372.301 115.332 373.18 117.105 374.522 118.293 376.327 118.895L376.045 119.797C373.756 119.195 372.002 117.9 370.784 115.912 369.565 113.924 368.955 111.516 368.955 108.688 368.955 105.867 369.567 103.459 370.789 101.463 372.012 99.4668 373.764 98.168 376.045 97.5664Z" fill="#FFFFFF" fill-rule="evenodd"/><text fill="#FFFFFF" font-family="Cambria Math,Cambria Math_MSFontService,sans-serif" font-weight="400" font-size="24" transform="translate(376.806 116)">洧노</text><g clip-path="url(#clip2)"><text fill="#FFFFFF" font-family="Calibri,Calibri_MSFontService,sans-serif" font-weight="400" font-size="24" transform="translate(649.6 116)">Noise at time</text></g><text fill="#FFFFFF" font-family="Cambria Math,Cambria Math_MSFontService,sans-serif" font-weight="400" font-size="24" transform="translate(785.047 116)">洧노</text><text fill="#FFFFFF" font-family="Cambria Math,Cambria Math_MSFontService,sans-serif" font-weight="400" font-size="24" transform="translate(364.849 154)">洧노</text><text fill="#FFFFFF" font-family="Cambria Math,Cambria Math_MSFontService,sans-serif" font-weight="400" font-size="18" transform="translate(373.443 159)">1</text><g clip-path="url(#clip3)"><text fill="#FFFFFF" font-family="Calibri,Calibri_MSFontService,sans-serif" font-weight="400" font-size="24" transform="translate(649.6 153)">Transmission delay of transducer TD2</text></g><text fill="#FFFFFF" font-family="Cambria Math,Cambria Math_MSFontService,sans-serif" font-weight="400" font-size="24" transform="translate(364.573 193)">洧노</text><text fill="#FFFFFF" font-family="Cambria Math,Cambria Math_MSFontService,sans-serif" font-weight="400" font-size="18" transform="translate(373.719 198)">2</text><g clip-path="url(#clip4)"><text fill="#FFFFFF" font-family="Calibri,Calibri_MSFontService,sans-serif" font-weight="400" font-size="24" transform="translate(649.6 193)">Transmission delay of amplifier U4 +</text></g><text fill="#FFFFFF" font-family="Cambria Math,Cambria Math_MSFontService,sans-serif" font-weight="400" font-size="24" transform="translate(1007.34 193)">洧노</text><text fill="#FFFFFF" font-family="Cambria Math,Cambria Math_MSFontService,sans-serif" font-weight="400" font-size="18" transform="translate(1015.93 198)">1</text><text fill="#FFFFFF" font-family="Cambria Math,Cambria Math_MSFontService,sans-serif" font-weight="400" font-size="24" transform="translate(364.573 232)">洧노</text><text fill="#FFFFFF" font-family="Cambria Math,Cambria Math_MSFontService,sans-serif" font-weight="400" font-size="18" transform="translate(373.719 237)">3</text><g clip-path="url(#clip5)"><text fill="#FFFFFF" font-family="Calibri,Calibri_MSFontService,sans-serif" font-weight="400" font-size="24" transform="translate(649.6 232)">Transmission delay of combiner MX2 +</text></g><text fill="#FFFFFF" font-family="Cambria Math,Cambria Math_MSFontService,sans-serif" font-weight="400" font-size="24" transform="translate(1030.47 232)">洧노</text><text fill="#FFFFFF" font-family="Cambria Math,Cambria Math_MSFontService,sans-serif" font-weight="400" font-size="18" transform="translate(1039.62 237)">2</text><text fill="#FFFFFF" font-family="Cambria Math,Cambria Math_MSFontService,sans-serif" font-weight="400" font-size="24" transform="translate(364.573 271)">洧노</text><text fill="#FFFFFF" font-family="Cambria Math,Cambria Math_MSFontService,sans-serif" font-weight="400" font-size="18" transform="translate(373.719 276)">4</text><g clip-path="url(#clip6)"><text fill="#FFFFFF" font-family="Calibri,Calibri_MSFontService,sans-serif" font-weight="400" font-size="24" transform="translate(649.6 271)">Transmission delay of combiner MX1 +</text></g><text fill="#FFFFFF" font-family="Cambria Math,Cambria Math_MSFontService,sans-serif" font-weight="400" font-size="24" transform="translate(1030.47 271)">洧노</text><text fill="#FFFFFF" font-family="Cambria Math,Cambria Math_MSFontService,sans-serif" font-weight="400" font-size="18" transform="translate(1039.62 276)">3</text><text fill="#FFFFFF" font-family="Cambria Math,Cambria Math_MSFontService,sans-serif" font-weight="400" font-size="24" transform="translate(364.573 310)">洧노</text><text fill="#FFFFFF" font-family="Cambria Math,Cambria Math_MSFontService,sans-serif" font-weight="400" font-size="18" transform="translate(373.719 315)">5</text><g clip-path="url(#clip7)"><text fill="#FFFFFF" font-family="Calibri,Calibri_MSFontService,sans-serif" font-weight="400" font-size="24" transform="translate(649.6 310)">Transmission delay of Driver</text></g><text fill="#FFFFFF" font-family="Calibri,Calibri_MSFontService,sans-serif" font-weight="400" font-size="24" transform="translate(928.94 310)">U2</text><text fill="#FFFFFF" font-family="Calibri,Calibri_MSFontService,sans-serif" font-weight="400" font-size="24" transform="translate(961.94 310)">+</text><text fill="#FFFFFF" font-family="Cambria Math,Cambria Math_MSFontService,sans-serif" font-weight="400" font-size="24" transform="translate(979.44 310)">洧노</text><text fill="#FFFFFF" font-family="Cambria Math,Cambria Math_MSFontService,sans-serif" font-weight="400" font-size="18" transform="translate(988.587 315)">4</text><text fill="#FFFFFF" font-family="Cambria Math,Cambria Math_MSFontService,sans-serif" font-weight="400" font-size="24" transform="translate(363.796 349)">洧노</text><text fill="#FFFFFF" font-family="Cambria Math,Cambria Math_MSFontService,sans-serif" font-weight="400" font-size="18" transform="translate(372.943 354)">洧녬</text><g clip-path="url(#clip8)"><text fill="#FFFFFF" font-family="Calibri,Calibri_MSFontService,sans-serif" font-weight="400" font-size="24" transform="translate(649.6 348)">Total noise loop delay from</text></g><text fill="#FFFFFF" font-family="Calibri,Calibri_MSFontService,sans-serif" font-weight="400" font-size="24" transform="translate(918.84 348)">transducer TD1 to TD2</text><path d="M114.952 360 640 360 640 398.4 114.952 398.4Z" fill-rule="evenodd"/><path d="M640 360 1165.05 360 1165.05 398.4 640 398.4Z" fill-rule="evenodd"/><path d="M114.952 398.4 640 398.4 640 437.333 114.952 437.333Z" fill="#BD6225" fill-rule="evenodd"/><path d="M640 398.4 1165.05 398.4 1165.05 437.333 640 437.333Z" fill="#BD6225" fill-rule="evenodd"/><path d="M114.952 437.333 640 437.333 640 476.267 114.952 476.267Z" fill="#ED7D31" fill-rule="evenodd"/><path d="M640 437.333 1165.05 437.333 1165.05 476.267 640 476.267Z" fill="#ED7D31" fill-rule="evenodd"/><path d="M114.952 476.267 640 476.267 640 515.2 114.952 515.2Z" fill="#BD6225" fill-rule="evenodd"/><path d="M640 476.267 1165.05 476.267 1165.05 515.2 640 515.2Z" fill="#BD6225" fill-rule="evenodd"/><path d="M114.952 515.2 640 515.2 640 554.133 114.952 554.133Z" fill="#ED7D31" fill-rule="evenodd"/><path d="M640 515.2 1165.05 515.2 1165.05 554.133 640 554.133Z" fill="#ED7D31" fill-rule="evenodd"/><path d="M114.952 554.133 640 554.133 640 593.067 114.952 593.067Z" fill="#BD6225" fill-rule="evenodd"/><path d="M640 554.133 1165.05 554.133 1165.05 593.067 640 593.067Z" fill="#BD6225" fill-rule="evenodd"/><path d="M114.952 593.067 640 593.067 640 632 114.952 632Z" fill="#ED7D31" fill-rule="evenodd"/><path d="M640 593.067 1165.05 593.067 1165.05 632 640 632Z" fill="#ED7D31" fill-rule="evenodd"/><path d="M114.952 632 640 632 640 670.933 114.952 670.933Z" fill="#BD6225" fill-rule="evenodd"/><path d="M640 632 1165.05 632 1165.05 670.933 640 670.933Z" fill="#BD6225" fill-rule="evenodd"/><path d="M114.952 670.933 640 670.933 640 709.867 114.952 709.867Z" fill="#ED7D31" fill-rule="evenodd"/><path d="M640 670.933 1165.05 670.933 1165.05 709.867 640 709.867Z" fill="#ED7D31" fill-rule="evenodd"/><path d="M114.952 398.4 1165.05 398.4" stroke="#FFFFFF" stroke-width="2.66667" stroke-linejoin="round" stroke-miterlimit="10" fill="none" fill-rule="evenodd"/><text fill="#FFFFFF" font-family="Calibri,Calibri_MSFontService,sans-serif" font-weight="700" font-size="24" transform="translate(272.393 387)">Reference designator</text><text fill="#FFFFFF" font-family="Calibri,Calibri_MSFontService,sans-serif" font-weight="700" font-size="24" transform="translate(845.737 387)">Description</text><text fill="#FFFFFF" font-family="Cambria Math,Cambria Math_MSFontService,sans-serif" font-weight="400" font-size="24" transform="translate(359.809 426)">洧녣1</text><g clip-path="url(#clip9)"><text fill="#FFFFFF" font-family="Calibri,Calibri_MSFontService,sans-serif" font-weight="400" font-size="24" transform="translate(649.6 425)">Signal source</text></g><text fill="#FFFFFF" font-family="Cambria Math,Cambria Math_MSFontService,sans-serif" font-weight="400" font-size="24" transform="translate(359.809 465)">洧녣2</text><g clip-path="url(#clip10)"><text fill="#FFFFFF" font-family="Calibri,Calibri_MSFontService,sans-serif" font-weight="400" font-size="24" transform="translate(649.6 464)">Output transducer driver</text></g><text fill="#FFFFFF" font-family="Cambria Math,Cambria Math_MSFontService,sans-serif" font-weight="400" font-size="24" transform="translate(359.809 504)">洧녣3</text><g clip-path="url(#clip11)"><text fill="#FFFFFF" font-family="Calibri,Calibri_MSFontService,sans-serif" font-weight="400" font-size="24" transform="translate(649.6 503)">Noise Gain Controller</text></g><text fill="#FFFFFF" font-family="Cambria Math,Cambria Math_MSFontService,sans-serif" font-weight="400" font-size="24" transform="translate(359.809 543)">洧녣4</text><g clip-path="url(#clip12)"><text fill="#FFFFFF" font-family="Calibri,Calibri_MSFontService,sans-serif" font-weight="400" font-size="24" transform="translate(649.6 542)">Input amplifier</text></g><text fill="#FFFFFF" font-family="Cambria Math,Cambria Math_MSFontService,sans-serif" font-weight="400" font-size="24" transform="translate(350.059 582)">洧洧녦1</text><g clip-path="url(#clip13)"><text fill="#FFFFFF" font-family="Calibri,Calibri_MSFontService,sans-serif" font-weight="400" font-size="24" transform="translate(649.6 581)">Signal combiner (Adder/Subtractor)</text></g><text fill="#FFFFFF" font-family="Cambria Math,Cambria Math_MSFontService,sans-serif" font-weight="400" font-size="24" transform="translate(350.059 621)">洧洧녦2</text><g clip-path="url(#clip14)"><text fill="#FFFFFF" font-family="Calibri,Calibri_MSFontService,sans-serif" font-weight="400" font-size="24" transform="translate(649.6 620)">Signal combiner (Adder/Subtractor)</text></g><text fill="#FFFFFF" font-family="Cambria Math,Cambria Math_MSFontService,sans-serif" font-weight="400" font-size="24" transform="translate(352.559 660)">洧녢洧냥1</text><g clip-path="url(#clip15)"><text fill="#FFFFFF" font-family="Calibri,Calibri_MSFontService,sans-serif" font-weight="400" font-size="24" transform="translate(649.6 659)">Output transducer</text></g><text fill="#FFFFFF" font-family="Cambria Math,Cambria Math_MSFontService,sans-serif" font-weight="400" font-size="24" transform="translate(352.559 699)">洧녢洧냥2</text><g clip-path="url(#clip16)"><text fill="#FFFFFF" font-family="Calibri,Calibri_MSFontService,sans-serif" font-weight="400" font-size="24" transform="translate(649.6 698)">Input transducer (feedback)</text></g></g></svg>